<svg xmlns="http://www.w3.org/2000/svg" width="169" height="42" viewBox="0 0 169 42" fill="none">
<path d="M15.0877 16.9882H10.8307V12.7979H20.5942C20.6337 15.435 20.9596 17.7142 19.7793 20.181C15.6631 28.7814 1.58089 25.7738 0.156122 16.5363C-1.60199 5.1259 11.9024 0.0416958 19.8534 6.75067L16.4483 10.7533C13.6531 8.42483 8.92199 7.98283 6.85275 11.4447C4.60079 15.2103 6.9046 20.2205 11.4406 20.339C13.4556 20.3909 15.105 19.055 15.0902 16.9882H15.0877Z" fill="black"/>
<path d="M156.379 24.5269H150.615L150.44 16.5931L142.43 3.74805H149.101L153.438 11.1928L157.88 3.74805H164.273L156.379 16.6598V24.5269Z" fill="black"/>
<path d="M36.5709 3.74805L44.9491 24.5269H38.6253L37.2821 21.1539H29.3385L28.0347 24.5269H21.7109L30.0891 3.74805H36.5709ZM31.2744 16.2376H35.3857L33.3312 10.9978L31.2768 16.2376H31.2744Z" fill="black"/>
<path d="M135.227 3.74799L143.605 24.5268H137.281L135.938 21.1538H127.995L126.691 24.5268H120.367L128.745 3.74799H135.227ZM129.933 16.2375H134.045L131.99 10.9977L129.935 16.2375H129.933Z" fill="black"/>
<path d="M54.66 12.6374V24.5244H49.1484V3.74805H55.2946L60.07 11.6867L64.8407 3.74805H70.9869V24.5269H65.4753V12.6399L60.0677 20.6007L54.66 12.6399V12.6374Z" fill="black"/>
<path d="M92.7126 19.6106V24.5269H75.9688V3.74805H92.7126V8.66434H82.0134V11.8225H91.856V16.7388H82.0134V19.6106H92.7126Z" fill="black"/>
<path d="M98.0547 3.74805H106.887C113.581 3.74805 118.172 8.23469 118.172 14.156C118.172 20.0772 113.579 24.5269 106.887 24.5269H98.0547V3.74805ZM103.813 8.70136V19.576H107.003C110.349 19.576 112.295 17.2796 112.295 14.156C112.295 11.0323 110.349 8.70136 107.003 8.70136H103.813Z" fill="black"/>
<path d="M36.1923 36.1347L34.3379 33.1247H33.9453V37.7175H34.3527V33.9346L36.1775 36.8804L37.9974 33.9346V37.7175H38.4023V33.1247H38.0369L36.1923 36.1347Z" fill="black"/>
<path d="M44.8984 37.7173H47.7774V37.3272H45.3034V35.6209H47.5035V35.2283H45.3034V33.5171H47.7774V33.1245H44.8984V37.7173Z" fill="black"/>
<path d="M57.4064 37.0261L54.4849 33.1617L54.4556 33.1247H54.0703V37.7175H54.475V33.816L57.3965 37.6805L57.4234 37.7175H57.8111V33.1247H57.4064V37.0261Z" fill="black"/>
<path d="M65.37 35.115C64.7353 34.915 64.1871 34.7446 64.1871 34.2014C64.1871 33.752 64.6338 33.4483 65.2982 33.4483C65.8044 33.4483 66.2487 33.6977 66.4267 33.9446L66.4858 34.0285L66.797 33.7544L66.7474 33.6853C66.5254 33.3717 65.9895 33.0557 65.2958 33.0557C64.3897 33.0557 63.7796 33.5223 63.7796 34.2137C63.7796 35.036 64.5427 35.273 65.2141 35.4829C65.8662 35.6879 66.4811 35.8805 66.4811 36.5225C66.4811 37.0583 66.0268 37.3917 65.2958 37.3917C64.7547 37.3917 64.2834 37.1769 63.9647 36.7867L63.9028 36.7101L63.6016 36.9842L63.6535 37.0509C64.0114 37.5151 64.6116 37.7818 65.3005 37.7818C66.2785 37.7818 66.8857 37.2855 66.8857 36.4855C66.8857 35.5866 66.0783 35.3323 65.3648 35.1076L65.37 35.115Z" fill="black"/>
<path d="M82.837 35.2283H79.9755V33.1245H79.5703V37.7173H79.9755V35.6209H82.837V37.7173H83.2422V33.1245H82.837V35.2283Z" fill="black"/>
<path d="M89.7383 37.7173H92.6197V37.3272H90.143V35.6209H92.3434V35.2283H90.143V33.5171H92.6197V33.1245H89.7383V37.7173Z" fill="black"/>
<path d="M100.19 33.1245L98.0664 37.7173H98.5282L99.1581 36.3567H101.605L102.227 37.7173H102.719L100.595 33.1245H100.19ZM99.3333 35.9642L100.383 33.6924L101.425 35.9642H99.3333Z" fill="black"/>
<path d="M108.651 33.1245H108.246V37.7173H111.155V37.3272H108.651V33.1245Z" fill="black"/>
<path d="M115.789 33.5171H117.335V37.7173H117.74V33.5171H119.288V33.1245H115.789V33.5171Z" fill="black"/>
<path d="M128.4 33.1245V35.2283H125.538V33.1245H125.133V37.7173H125.538V35.6209H128.4V37.7173H128.805V33.1245H128.4Z" fill="black"/>
<path d="M60.7867 32.4038L60.3867 33.3544H60.7867L61.0067 32.4038H60.7867Z" fill="black"/>
</svg>